<?xml version="1.0" standalone="no"?>
<!DOCTYPE svg PUBLIC "-//W3C//DTD SVG 20010904//EN"
 "http://www.w3.org/TR/2001/REC-SVG-20010904/DTD/svg10.dtd">
<svg version="1.0" xmlns="http://www.w3.org/2000/svg"
 width="153.000000pt" height="152.000000pt" viewBox="0 0 153.000000 152.000000"
 preserveAspectRatio="xMidYMid meet">

<g transform="translate(0.000000,152.000000) scale(0.100000,-0.100000)"
fill="#000000" stroke="none">
<path d="M581 1335 c-222 -49 -407 -228 -465 -452 -21 -80 -21 -246 0 -326 41
-160 149 -304 286 -382 45 -26 68 -31 68 -16 0 5 -38 46 -84 92 -64 65 -92
102 -120 161 -73 152 -83 299 -31 453 99 296 412 480 700 410 75 -18 75 -18
75 -1 0 17 -83 50 -165 65 -78 15 -185 13 -264 -4z"/>
<path d="M494 1116 c-143 -96 -224 -252 -224 -431 0 -146 47 -264 146 -362
103 -105 262 -163 404 -150 79 7 180 37 180 53 0 17 -6 17 -86 2 -82 -15 -178
1 -271 46 -251 122 -354 415 -231 661 30 60 94 140 133 167 19 12 35 29 35 36
0 21 -34 13 -86 -22z"/>
<path d="M795 931 c-47 -12 -72 -28 -102 -68 -27 -35 -28 -41 -31 -180 l-3
-143 40 0 40 0 3 48 3 47 107 3 107 3 3 -48 3 -48 43 -3 42 -3 0 188 c0 134
-4 193 -12 201 -13 13 -191 15 -243 3z m165 -146 l0 -65 -110 0 c-122 0 -123
0 -95 66 18 44 60 63 143 64 l62 0 0 -65z"/>
<path d="M1074 927 c-2 -7 -3 -96 -2 -197 l3 -185 43 -3 42 -3 0 200 0 201
-40 0 c-24 0 -43 -5 -46 -13z"/>
<path d="M1295 860 c-53 -53 -87 -80 -102 -80 -20 0 -23 -5 -23 -40 0 -35 3
-40 23 -40 15 0 49 -27 102 -80 79 -80 80 -80 132 -80 35 0 53 4 53 12 0 7
-39 52 -87 100 l-88 88 88 88 c48 48 87 93 87 100 0 8 -18 12 -53 12 -52 0
-53 0 -132 -80z"/>
<path d="M477 903 c-48 -84 -49 -280 -3 -375 42 -88 105 -152 194 -195 74 -37
79 -38 187 -38 108 0 113 1 187 38 53 26 91 54 127 93 78 85 65 118 -16 43
-52 -48 -127 -85 -206 -100 -158 -32 -345 69 -419 227 -46 98 -52 180 -23 287
6 21 4 27 -8 27 -9 0 -18 -3 -20 -7z"/>
</g>
</svg>
